<?xml version="1.0" encoding="utf-8"?>
<!-- Generator: Adobe Illustrator 24.0.3, SVG Export Plug-In . SVG Version: 6.00 Build 0)  -->
<svg version="1.1" id="レイヤー_1" xmlns="http://www.w3.org/2000/svg" xmlns:xlink="http://www.w3.org/1999/xlink" x="0px"
	 y="0px" width="39.7px" height="39.7px" viewBox="0 0 39.7 39.7" style="enable-background:new 0 0 39.7 39.7;"
	 xml:space="preserve">
<style type="text/css">
	.st0{fill:#1877F2;}
	.st1{fill:#FFFFFF;}
</style>
<path class="st0" d="M39.7,19.9C39.7,8.9,30.8,0,19.9,0S0,8.9,0,19.9C0,29.8,7.3,38,16.7,39.5V25.6h-5v-5.7h5v-4.4
	c0-5,3-7.7,7.5-7.7c2.2,0,4.4,0.4,4.4,0.4V13h-2.5c-2.5,0-3.2,1.5-3.2,3.1v3.7h5.5l-0.9,5.7H23v13.9C32.4,38,39.7,29.8,39.7,19.9z"
	/>
<path class="st1" d="M27.6,25.6l0.9-5.7H23v-3.7c0-1.6,0.8-3.1,3.2-3.1h2.5v-5c0,0-2.3-0.4-4.4-0.4c-4.5,0-7.5,2.7-7.5,7.7v4.4h-5
	v5.7h5v13.9c1,0.2,2,0.2,3.1,0.2s2.1-0.1,3.1-0.2V25.6C23,25.6,27.6,25.6,27.6,25.6z"/>
</svg>
