<svg version="1.1" id="レイヤー_1" xmlns="http://www.w3.org/2000/svg" x="0" y="0" width="20" height="20" viewBox="0 0 20 20" style="enable-background:new 0 0 20 20" xml:space="preserve"><style type="text/css">.st0{fill:#fff}</style><path class="st0" d="M20 19.37a19.49 19.49 0 0 0-5.78-13.63C10.59 2.14 5.76.1.63 0H.46A.463.463 0 0 0 0 .46v3.1c0 .25.2.45.45.46h.16c8.48.19 15.22 6.94 15.35 15.37v.16c0 .25.21.45.46.45h3.12a.46.46 0 0 0 .46-.47v-.16zM2.61 14.81C1.17 14.81 0 15.97 0 17.4S1.17 20 2.61 20s2.61-1.16 2.61-2.6-1.16-2.59-2.61-2.59z"/><path class="st0" d="M.5 6.59H.46c-.11 0-.23.04-.31.12-.1.08-.15.2-.15.33v3.12c0 .23.17.43.41.46 4.66.56 8.42 4.33 8.92 8.97.02.23.22.41.46.41h3.13c.13 0 .25-.05.34-.15.09-.09.13-.22.12-.35a14.17 14.17 0 0 0-4.08-8.78A14.286 14.286 0 0 0 .5 6.59z"/></svg>