<svg xmlns="http://www.w3.org/2000/svg" width="35.6" height="35.6" viewBox="0 0 35.6 35.6">
  <defs>
    <style>
      .a {
        fill: #00b900;
      }

      .b {
        fill: #fff;
      }
    </style>
  </defs>
  <g>
    <circle class="a" cx="17.8" cy="17.8" r="17.8"/>
    <g>
      <path class="b" d="M29.7,16.7c0-5.3-5.4-9.6-11.9-9.6S6,11.4,6,16.7s4.2,8.8,9.9,9.5c.4.1.9.3,1,.6a4.1,4.1,0,0,1,.1,1.1,8.7,8.7,0,0,0-.2,1c-.1.3-.2,1.2,1,.6a37.9,37.9,0,0,0,9.3-6.8h0a8.8,8.8,0,0,0,2.6-6"/>
      <g>
        <path class="a" d="M15.4,14.2h-.8c-.2,0-.3.1-.3.2v5.2c0,.1.1.2.3.2h.8l.2-.2V14.4a.2.2,0,0,0-.2-.2"/>
        <path class="a" d="M21.1,14.2h-.8a.2.2,0,0,0-.2.2v3.1l-2.4-3.2h-1c-.2,0-.3.1-.3.2v5.2c0,.1.1.2.3.2h.8a.2.2,0,0,0,.2-.2V16.5l2.4,3.2a.1.1,0,0,0,.1.1h.9c.2,0,.3-.1.3-.2V14.4c0-.1-.1-.2-.3-.2"/>
        <path class="a" d="M13.4,18.5H11.1V14.4a.2.2,0,0,0-.2-.2h-.8a.2.2,0,0,0-.2.2v5.2h3.5l.2-.2v-.9a.2.2,0,0,0-.2-.2"/>
        <path class="a" d="M25.7,15.5c.1,0,.2-.1.2-.3v-.8a.2.2,0,0,0-.2-.2H22.2v5.2h3.5a.2.2,0,0,0,.2-.2v-.9a.2.2,0,0,0-.2-.2H23.5v-.9h2.2a.2.2,0,0,0,.2-.2v-.8c0-.1-.1-.3-.2-.3H23.5v-.8Z"/>
      </g>
    </g>
  </g>
</svg>
