<?xml version="1.0" encoding="utf-8"?>
<!-- Generator: Adobe Illustrator 24.3.0, SVG Export Plug-In . SVG Version: 6.00 Build 0)  -->
<svg version="1.1" xmlns="http://www.w3.org/2000/svg" xmlns:xlink="http://www.w3.org/1999/xlink" x="0px" y="0px" width="248.9px"
	 height="67.6px" viewBox="0 0 248.9 67.6" style="enable-background:new 0 0 248.9 67.6;" xml:space="preserve">
<style type="text/css">
	.st0{fill:#FF0000;}
</style>
<g id="レイヤー_1">
	<path d="M149.5,46.1h2.9c0.6,0,0.6-1.5,0-1.5h-3.5c0-1,0-1.9,0-2.7h3.1c0.6,0,0.6-1.5,0-1.5h-3.1c0-0.8,0-1.5,0-1.9
		c0-0.5-0.3-0.7-0.7-0.7h-1.1c-0.4,0-0.6,0.2-0.7,0.7c0,0.5,0,1.2,0,1.9h-1.1c0.1-0.5,0.2-1,0.3-1.6c0-0.2-0.1-0.3-0.3-0.3h-1.5
		c-0.2,0-0.4,0.1-0.4,0.3c-0.1,1.8-0.2,3.2-0.9,4.4c-0.2,0.4,0.1,0.8,0.6,0.6c0.7-0.3,1.3-0.9,1.8-1.9h1.6c0,0.8,0,1.8,0,2.7h-3.5
		c-0.6,0-0.6,1.5,0,1.5h2.5c-1,2.5-2.2,4.4-3.6,6c-0.4,0.4,0.2,1,0.7,0.7c1.4-1,2.7-2.5,3.8-4.3c0,1.9,0,3.7,0,4.7
		c0,0.4,0.3,0.7,0.7,0.7h1.1c0.4,0,0.7-0.2,0.7-0.7c0-1.1,0-3,0-5.2c1.1,2.2,2.4,4,3.9,4.9c0.2,0.1,0.4,0,0.4-0.2v-1.2
		c0-0.2-0.1-0.5-0.3-0.7C151.6,49.8,150.6,48.5,149.5,46.1L149.5,46.1z M142.1,45.8v-0.9c0-0.2-0.2-0.4-0.4-0.5
		c-0.4-0.2-0.7-0.3-1.1-0.5c0-0.5,0-0.9,0-1.4h1.2c0.6,0,0.6-1.5,0-1.5h-1.2c0-1,0-1.9-0.1-2.5c0-0.5-0.3-0.7-0.7-0.7H139
		c-0.4,0-0.6,0.2-0.7,0.7c0,0.6-0.1,1.5-0.1,2.5h-1.5c-0.6,0-0.6,1.5,0,1.5h1.5v0.1c-0.6,2.3-1.5,4-2.3,5.4c-0.3,0.5,0.3,1,0.8,0.6
		c0.5-0.4,1-1,1.5-1.7c0,2.6,0,5,0.1,6.4c0,0.4,0.3,0.7,0.7,0.7h0.9c0.4,0,0.6-0.2,0.7-0.7c0.1-1.6,0.1-4.7,0.1-7.7
		c0.3,0.2,0.6,0.4,0.9,0.5C141.9,46.2,142.1,46.1,142.1,45.8z M198.3,49.1c0.2,0,0.4-0.1,0.4-0.3v-0.9c0-0.2-0.1-0.4-0.3-0.5
		c-0.9-0.3-1.6-0.7-2.3-1.2c0.9-1.1,1.6-2.7,1.9-4.7c0.1-0.4-0.3-0.7-0.7-0.7h-1.7c0-0.7,0-1.6,0-2.2c0-0.4-0.3-0.7-0.7-0.7h-1.1
		c-0.4,0-0.6,0.2-0.7,0.7c0,0.7,0,1.4,0,2.2h-2c-0.6,0-0.6,1.5,0,1.5h4.1c-0.4,2.8-2,4.6-4.8,6c-0.6,0.3-0.2,1.2,0.4,1
		c0.9-0.2,1.7-0.5,2.4-0.8c0,1.7,0,3.7,0,5c0,0.4,0.3,0.7,0.7,0.7h1.1c0.4,0,0.6-0.2,0.7-0.7c0.1-1.7,0.1-3.9,0-5.7
		C196.4,48.3,197.3,48.8,198.3,49.1z"/>
	<path d="M207.2,51.8h-3.2c0-2,0-5.2,0-8.1h2.8c0.6,0,0.6-1.5,0-1.5h-2.8c0-1.5,0-2.7-0.1-3.6c0-0.5-0.3-0.7-0.7-0.7h-1.3
		c-0.4,0-0.6,0.2-0.7,0.7c0,0.8-0.1,2.1-0.1,3.6h-2.6c-0.6,0-0.6,1.5,0,1.5h2.6c0,2.9,0,6.1,0,8.1h-3.7c-0.6,0-0.6,1.6,0,1.6h9.6
		C207.8,53.4,207.8,51.8,207.2,51.8L207.2,51.8z M164.4,49.8c-1.1,0.3-2.3,0.5-3.4,0.8c0-1.3,0-3.1,0-4.3h2.2c0.6,0,0.6-1.5,0-1.5
		H156c-0.6,0-0.6,1.5,0,1.5h2.2c-0.1,1.3-0.1,3.5,0,4.7c-0.8,0.1-1.7,0.2-2.6,0.3c-0.2,0-0.4,0.2-0.5,0.4c-0.1,0.4-0.1,1,0,1.4
		c0,0.2,0.2,0.4,0.4,0.3c3.2-0.2,6.4-0.9,8.9-2.1c0.4-0.2,0.5-0.4,0.5-0.9C164.9,49.9,164.7,49.7,164.4,49.8L164.4,49.8z
		 M168.1,39.9h1.8c0.6,0,0.6-1.5,0-1.5h-1.8C167.5,38.4,167.5,39.9,168.1,39.9z"/>
	<path d="M170.3,40.8h-3.5c0-0.8,0-1.7,0-2.3c0-0.5-0.3-0.7-0.7-0.7h-1.4c-0.4,0-0.6,0.2-0.7,0.7c0,0.6-0.1,1.4-0.1,2.3h-8.5
		c-0.6,0-0.6,1.5,0,1.5h8.6c0.5,7.4,2.9,10.5,6.2,11.5c0.2,0.1,0.5,0,0.5-0.3v-0.9c0-0.2-0.1-0.5-0.3-0.7c-2-1.5-3.2-3.8-3.6-9.7
		h3.4C170.9,42.4,170.9,40.8,170.3,40.8L170.3,40.8z M173,44c0.7-0.2,1.4-0.4,2.1-0.6c0,0.4,0.1,0.8,0.4,0.8h10
		c0.3,0,0.5-0.5,0.4-0.8c0.7,0.3,1.4,0.5,2.1,0.8c0.2,0.1,0.4-0.1,0.4-0.3v-1c0-0.2-0.1-0.4-0.3-0.4c-2.4-0.8-4.6-2.1-6.2-4
		c-0.2-0.2-0.3-0.3-0.6-0.3h-2.2c-0.2,0-0.4,0.1-0.5,0.3c-1.5,2.1-3.8,3.7-6.1,4.7C172.2,43.3,172.4,44.2,173,44L173,44z M181,39.6
		c1,1.3,2.3,2.4,3.8,3.2h-8.2C178.2,42,179.8,40.9,181,39.6z M188.1,47.9c0.6,0,0.6-1.5,0-1.5h-15.2c-0.6,0-0.6,1.5,0,1.5h3.4
		c-0.4,1-0.9,2.2-1.4,3.4c-0.1,0.3-0.3,0.5-0.6,0.5h-1c-0.2,0-0.4,0.1-0.4,0.3c-0.1,0.3-0.1,1,0,1.3c0,0.2,0.2,0.3,0.4,0.3h4
		c3.5,0,5.3-0.5,7.4-1.5c0.3,0.5,0.6,1,0.8,1.3c0.1,0.2,0.4,0.3,0.6,0.3h1.9c0.3,0,0.4-0.3,0.3-0.5c-0.8-1.3-2.2-3.2-2.9-4
		c-0.2-0.2-0.3-0.3-0.6-0.3h-1.8c-0.2,0-0.4,0.2-0.2,0.5c0.3,0.4,0.6,0.9,1,1.4c-1.6,0.7-2.6,0.8-6.2,0.8h-0.3
		c0.6-1.1,1.3-2.6,1.7-3.8H188.1L188.1,47.9z M235.9,46.9c-0.5,0-0.6,0.1-0.7,0.4c-0.6,1.8-1,2.6-1.7,3.3c-0.2,0.2-0.4,0.5-0.4,0.6
		c-0.2,0.7-0.1,1.7,0,2.2c0.1,0.4,0.5,0.6,0.9,0.5c1.9-0.5,2.5-2.6,2.6-6.5C236.5,47.1,236.4,46.9,235.9,46.9L235.9,46.9z
		 M248.8,44.8c-0.5-1.5-1.6-3.9-2.3-5.2c-0.1-0.2-0.3-0.3-0.5-0.3h-1.6c-0.2,0-0.4,0.2-0.3,0.4c0.2,0.7,0.6,1.8,1.1,2.8
		c-1.4,0.7-1.9,0.7-3.3,0.7H240c0.6-1,1.5-3.1,2-4.9c0.1-0.2-0.1-0.4-0.3-0.4h-2c-0.2,0-0.4,0.1-0.5,0.3c-0.4,1.3-0.9,3-1.6,4.5
		c-0.1,0.3-0.3,0.5-0.7,0.5c-0.5,0-0.5,1.7,0,1.7h4.7c1.5,0,2.8-0.4,4-1.1c0.1,0.4,0.3,0.8,0.4,1c0.1,0.2,0.3,0.3,0.5,0.3h1.9
		C248.8,45.2,248.9,45,248.8,44.8L248.8,44.8z M247.3,46.2h-9.1c-0.4,0-0.6,0.2-0.7,0.7c-0.1,2.2-0.2,4.5-0.1,6.2
		c0,0.4,0.3,0.7,0.7,0.7h9.3c0.4,0,0.6-0.2,0.7-0.7c0.1-1.7,0-4.1-0.1-6.2C247.9,46.4,247.7,46.2,247.3,46.2L247.3,46.2z
		 M245.4,51.9c0,0.2-0.2,0.4-0.4,0.4h-4.4c-0.2,0-0.4-0.2-0.4-0.4v-3.7c0-0.2,0.2-0.4,0.4-0.4h4.4c0.2,0,0.4,0.2,0.4,0.4V51.9z
		 M236.7,39.3c0-0.3-0.2-0.6-0.6-0.7c-0.6-0.1-1.6-0.2-2.2-0.3c-0.4,0-0.6,0.2-0.6,0.5v1c0,0.4,0.2,0.6,0.6,0.8
		c0.6,0.2,1.6,0.3,2.2,0.4c0.4,0,0.6-0.2,0.6-0.5V39.3z M235.5,45.4c0.4,0,0.6-0.2,0.6-0.5v-1.2c0-0.3-0.2-0.6-0.6-0.7
		c-0.6-0.1-1.6-0.2-2.2-0.2c-0.4,0-0.6,0.2-0.6,0.5v1c0,0.4,0.2,0.6,0.6,0.8C233.8,45.1,234.8,45.3,235.5,45.4z M220.7,50
		c0.1-2.7,0.1-7.9,0-10.7c0-0.4-0.3-0.6-0.6-0.6h-5.6c-0.4,0-0.6,0.2-0.6,0.6c-0.1,2.6-0.1,8,0,10.7c0,0.4,0.3,0.6,0.6,0.6h5.6
		C220.5,50.6,220.7,50.4,220.7,50z M218.4,48.8c0,0.2-0.2,0.4-0.4,0.4h-1.4c-0.2,0-0.4-0.2-0.4-0.4v-3.5h2.1L218.4,48.8L218.4,48.8z
		 M218.4,43.9h-2.1v-3.4c0-0.2,0.2-0.4,0.4-0.4h1.4c0.2,0,0.4,0.2,0.4,0.4L218.4,43.9L218.4,43.9z"/>
	<path d="M229.4,38.4h-6.6c-0.4,0-0.7,0.2-0.7,0.6c-0.1,1.7-0.1,5.2-0.1,6.7c0,4-0.9,5.8-2.7,7.1c-0.6,0.4-0.2,1.3,0.5,1
		c2.5-0.9,4-2.5,4.5-5.3h3.3c0,1.4,0,2.6,0,3.1c0,0.4-0.3,0.7-0.7,0.7h-1.3c-0.6,0-0.6,1.5,0,1.5h2.8c1,0,1.7-0.7,1.7-1.6
		c0.1-2.3,0-10.7,0-13.1C230,38.6,229.8,38.4,229.4,38.4z M224.5,40.3c0-0.2,0.2-0.5,0.4-0.5h2.2c0.3,0,0.4,0.2,0.4,0.5
		c0,0.7,0,1.5,0,2.4h-3.1L224.5,40.3L224.5,40.3z M224.5,46.9c0-0.2,0-0.5,0-0.8v-2h3.1c0,0.9,0,1.9,0,2.8H224.5z"/>
</g>
<g id="レイヤー_4">
	<g>
		<path class="st0" d="M39.9,44.1V55c0,1.3-0.6,1.9-1.9,1.9h-5.3c-1.3,0-1.9-0.6-1.9-1.9c0,0,0-7.1,0-9.3c0-3.5-1.2-4.9-3.3-4.9
			c-0.9,0-2.1,0.4-3.2,0.9c0,0,0.3,1.5,0.3,10.2l0,3.1c0,1.3-0.6,1.9-1.9,1.9h-5.3c-1.3,0-1.9-0.6-1.9-1.9c0,0,0-7.1,0-9.3
			c0-3.5-1.2-4.9-3.3-4.9c-0.9,0-2,0.3-3,0.9V55c0,1.3-0.6,1.9-1.9,1.9H1.9C0.6,56.9,0,56.3,0,55V36.2c0-1.2-0.1-2.5,0.3-2.9
			c0.4-0.4,1.1-0.3,1.7,0.1c1,0.6,2.9,1.4,4.7,1.4c1.4,0,2.3-0.2,4.9-0.9c2.7-0.7,4.1-1.2,5.6-1.3c2.9-0.2,5.8,0.9,6.2,3
			c3.3-2.1,5.9-2.6,8.5-2.6c2.1,0,4.1,0.6,5.4,1.8C39.4,36.7,39.9,39.2,39.9,44.1z M110.8,30.6c2.5,0,4.6-2,4.6-4.6
			c0-2.5-2-4.6-4.6-4.6c-2.5,0-4.6,2-4.6,4.6C106.2,28.6,108.3,30.6,110.8,30.6z M113.4,56.9h-5.3c-1.3,0-1.9-0.6-1.9-1.9V36.1
			c0-1.3,0.6-1.9,1.9-1.9h5.3c1.3,0,1.9,0.6,1.9,1.9l0,18.8C115.3,56.3,114.8,56.9,113.4,56.9z M85.6,55l0-18.9
			c0-1.3-0.6-1.9-1.9-1.9h-5.3c-1.3,0-1.9,0.6-1.9,1.9V55c0,1.3,0.6,1.9,1.9,1.9h5.3C85,56.9,85.6,56.3,85.6,55z M76.5,26.1
			c0-2.5,2-4.6,4.6-4.6c2.5,0,4.6,2,4.6,4.6c0,2.5-2,4.6-4.6,4.6C78.5,30.6,76.5,28.6,76.5,26.1z M59.2,32.3
			c-8.6,0-14.9,5.1-14.9,12.9c0,7.7,5.4,12.5,13.1,13c3.3,0.2,9.3,0.1,12.7-4.8c0.7-1.1,1.1-2.3,1-3c0-0.4-0.4-0.7-0.9-0.5
			c-0.4,0.1-4.2,2.8-9.6,2.1c-3.2-0.4-6.3-2.6-6.4-5.7c0,0,15.6,0,16.1,0c1.3,0,1.9-0.6,1.9-1.9C72.2,38.4,67.5,32.3,59.2,32.3z
			 M63.3,41.8h-9c0.2-1.6,1.8-4.1,5-4.1C62.3,37.6,63.4,40.3,63.3,41.8z M96,30.6c2.5,0,4.6-2,4.6-4.6c0-2.5-2-4.6-4.6-4.6
			c-2.5,0-4.6,2-4.6,4.6C91.4,28.6,93.5,30.6,96,30.6z M100.5,55c0,1.7,0,2.6-0.1,4c-0.6,6.3-5.6,8.7-10.2,8.7
			c-5.2,0-8.1-2.8-8.6-4.5c-0.1-0.4,0-0.6,0.3-0.7c0.2-0.1,0.5-0.1,0.9,0.1c1.8,0.6,4.4,0.6,6.2-0.4c2.1-1.2,2.5-2.6,2.5-7.8
			c0-1.8,0-18.2,0-18.2c0-1.3,0.6-1.9,1.9-1.9h5.3c1.3,0,1.9,0.6,1.9,1.9C100.5,40.2,100.5,55,100.5,55z"/>
		<g>
			<path d="M10.5,4.3c-0.4,1.1-1.1,2.4-1.7,3.5h1.7c-0.1,0.9-0.2,1.9-0.5,2.7C9.8,10.1,9.6,9.6,9.5,9L8.3,9.2c0.2,1,0.6,2,1.1,2.7
				c-0.3,0.6-0.6,1.2-1,1.7c-0.5,0.7,0.1,1.2,0.8,0.4c0.3-0.4,0.6-0.8,0.8-1.2c0.8,0.8,1.9,1.2,3.1,1.4c1.3,0.1,2.5,0.1,3.8,0.1
				c0.9,0,0.9-1.1,0.1-1.1c-1.1,0-2.4,0-3.7-0.1c-1.2-0.1-2-0.7-2.6-1.6c0,0,0,0,0-0.1c0.4-1,0.8-2.5,0.9-3.9c0-0.2-0.1-0.6-0.4-0.6
				h-0.8c0.5-0.8,1.1-2,1.4-2.9c0.2-0.5,0-0.8-0.5-0.8H9.6L9.5,4.3H10.5z"/>
			<path d="M14,7h-1.4l-0.1,0.9h1.4l-0.1,1h-1.5l-0.1,0.9h1.5l-0.1,0.9h-1.8l-0.1,0.9h1.8l-0.1,0.8h1.3l0.1-0.8h2.8l0.1-0.9H15
				l0.1-0.9h2.7l0.1-0.9h-2.7l0.1-1h1.2h0.7h0.6L17.9,6h0.6l0.1-1H18l0.1-0.9c0-0.5-0.2-0.8-0.7-0.8h-1.7l0.1-0.8h-1.5l-0.1,0.8
				h-1.2l-0.1,0.9h1.3l-0.1,0.9h-1.8L12.2,6H14L14,7z M15.5,4.2h1.2l-0.1,0.9h-1.2L15.5,4.2z M15.4,6h1.2l-0.1,1h-1.2L15.4,6z"/>
			<path d="M28.3,2.6h-1.8l-0.1,0.7h-4.9l-0.3,3.6c-0.2,2.7-0.6,4.7-1.4,6.5c-0.3,0.7,0.6,1.2,1.1,0.4c1-1.7,1.7-4.1,1.9-6.9
				l0.2-2.5h10l0.1-1.1h-4.9L28.3,2.6z"/>
			<path d="M38.2,10.1c-0.1,0.8-0.1,1.5,0.1,2c0.3,1,1.1,1.5,2.4,1.5c1.3,0.1,2.3,0,3.7-0.1c1.1-0.1,1.1-1.5,0-1.4
				c-1.2,0.1-1.8,0.2-2.4,0.2c-0.4,0-0.7,0-1,0c-0.7-0.1-1.3-0.4-1.4-1.2c0-0.3,0-0.7,0.1-1L38.2,10.1z"/>
			<path d="M39,4.5l-0.1,1.4c2.1-0.1,4.6-0.2,6.6-0.2l0.1-1.4C43.9,4.3,41.2,4.4,39,4.5z"/>
			<path d="M37.2,13.8c-0.3-1.5-0.3-3-0.2-4.3c0.1-1.7,0.6-3.6,1.3-5.8l-1.7-0.2c-0.6,1.7-1,3.5-1.2,5.3c0,0.3-0.1,0.6-0.1,0.9
				c-0.1,1.5-0.1,3,0.2,4.5L37.2,13.8z"/>
			<path d="M105.4,8.2c-0.1-0.4-0.2-0.8-0.4-1c-0.4-0.5-1.4-0.6-2.7-0.2c0.4-0.4,0.8-0.9,1.1-1.4l5.1,0l0.1-1.3l-4.5,0
				c0.2-0.3,0.3-0.7,0.4-1.1l-1.8-0.1c-0.1,0.4-0.3,0.8-0.4,1.2l-3.8,0l-0.1,1.2l3.2,0c-0.8,1.2-1.9,2.2-3.5,3.4
				c-0.9,0.6-0.2,1.6,0.7,1.1c0.9-0.6,1.9-1.2,2.5-1.5c1.8-0.7,2.4-0.7,2.5,0.2c-1.9,0.7-3.3,1.6-3.5,2.8c-0.1,1,0.3,1.7,1.2,2.1
				c0.6,0.2,1.2,0.3,2.4,0.3c1.7,0,2.9,0,4-0.2c0.8-0.1,0.8-1.3,0-1.2c-1.7,0.2-3.3,0.2-4.3,0.2c-1.1-0.1-1.7-0.4-1.6-1.2
				c0-0.5,0.7-1.1,1.6-1.5c-0.1,0.7-0.1,1.4-0.1,1.5h1.8c0-0.5,0.1-1.3,0.2-2.2c1-0.3,2.3-0.5,3.6-0.7l-0.2-1.5
				C107.6,7.6,106.4,7.9,105.4,8.2z"/>
			<path d="M48.8,13.8c4.2-0.8,5-3.2,5.2-5.7L54.2,6h-2L52,8.3c-0.2,2.6-1.1,3.5-3.3,4.2C47.9,12.7,47.9,14,48.8,13.8z"/>
			<path d="M55.3,8c-0.8,0.3-0.9,1.4,0,1.3c2.1-0.2,4.1-2.1,4.5-4.8c0.1-0.5-0.2-1-0.8-1H48.5l-0.1,1.3h9.2
				C57.4,6.7,56.3,7.7,55.3,8z"/>
			<path d="M85.6,13.8c4.2-0.8,5-3.2,5.2-5.7L91,6h-2l-0.2,2.3c-0.2,2.6-1.1,3.5-3.3,4.2C84.7,12.7,84.8,14,85.6,13.8z"/>
			<path d="M95.8,3.6H85.7l-0.1,1.3h8.9c-0.2,1.8-1.3,2.8-2.3,3.1c-0.8,0.3-0.9,1.4,0,1.3c2.1-0.2,4.1-2.1,4.5-4.8
				C96.7,4.1,96.5,3.6,95.8,3.6z"/>
			<path d="M70,3.2l-1.4,0c-0.8,2.3-4,4.4-8.2,4.9c-0.8,0.1-0.9,1.4,0,1.3c1.5-0.1,2.9-0.4,4.2-0.8l-0.4,5.5h1.8l0.5-6.2
				c1.9-0.9,3.3-2.2,4-3.7C70.8,3.6,70.6,3.2,70,3.2z"/>
			<polygon points="81.1,3.4 72.9,3.4 72.8,4.8 81,4.8 			"/>
			<path d="M72.3,12.7c-0.7,0.1-0.8,1.3,0.1,1.3c4.4-0.3,5.7-2.2,5.9-4.8l0.1-1h4.2l0.1-1.3H71.9l-0.1,1.3h4.5l-0.1,1
				C76,11.4,75,12.3,72.3,12.7z"/>
			<path d="M83.1,2.6c-0.5,0-0.9,0.4-0.9,0.9c0,0.5,0.4,0.9,0.9,0.9c0.5,0,0.9-0.4,0.9-0.9C84,3,83.6,2.6,83.1,2.6z"/>
			<path d="M85.3,1.8c0.2-0.1,0.4-0.3,0.5-0.5c0.3-0.8-0.4-1.5-1.1-1.3c-0.3,0.1-0.6,0.3-0.6,0.6C83.8,1.4,84.5,2.1,85.3,1.8z"/>
			<path d="M6.2,9.4C6.4,9.2,6.6,9,6.7,8.8l-0.6,5.8h1.4l0.7-8.4c0.5-1.1,0.9-2.3,1.3-3.6H7.8C7.3,5,6.5,7,5.3,8.8
				C4.9,9.5,5.7,10.1,6.2,9.4z"/>
			<path d="M24.8,11.9c0.9,0.1,1.3-0.9,0.3-1.1c-0.5-0.1-1.1-0.2-1.6-0.4l-0.7,0.9C23.5,11.5,24.4,11.8,24.8,11.9z"/>
			<path d="M22.3,14.3c1.4-0.1,2.4-0.4,3.3-0.9c0.6-0.4,0.3-1-0.4-0.8c-1,0.3-2,0.5-3,0.5L22.3,14.3z"/>
			<path d="M23.2,7.2L23.2,8h3.7L26.7,9h-3.1l-0.1,0.9h3l-0.4,4.5h1.5l0.1-1.8c0-0.3,0-0.7,0-1c0.8,1.4,2.2,2.6,3.9,2.8
				c0.7,0.1,1.1-0.9,0.3-1.1c-1.7-0.4-3-1.8-3.8-3.5h3.6l0.1-1.8h0.5l0.1-1H32l0.1-1c0-0.5-0.3-0.8-0.8-0.8h-2.8l0-0.5H27l0,0.5h-3
				l-0.1,0.9H27l-0.1,0.9H23.2z M28.4,6.2h2.3l-0.1,0.9h-2.3L28.4,6.2z M28.2,8h2.3L30.4,9h-2.3L28.2,8z"/>
			<path d="M30.4,10.9c-0.8,0.3-0.5,1.2,0.2,1c0.8-0.2,1.7-0.5,2.2-0.9l-0.8-0.9C31.6,10.3,31.1,10.6,30.4,10.9z"/>
		</g>
	</g>
</g>
</svg>
