<?xml version="1.0" encoding="utf-8"?>
<!-- Generator: Adobe Illustrator 24.3.0, SVG Export Plug-In . SVG Version: 6.00 Build 0)  -->
<svg version="1.1" id="レイヤー_2" xmlns="http://www.w3.org/2000/svg" xmlns:xlink="http://www.w3.org/1999/xlink" x="0px"
	 y="0px" width="115.5px" height="63.1px" viewBox="0 0 115.5 63.1" style="enable-background:new 0 0 115.5 63.1;"
	 xml:space="preserve">
<style type="text/css">
	.st0{fill:#FF0000;}
</style>
<g>
	<path class="st0" d="M41.2,41.2v10.1c0,1.2-0.5,1.8-1.8,1.8h-4.9c-1.2,0-1.8-0.5-1.8-1.8c0,0,0-6.6,0-8.7c0-3.2-1.1-4.6-3.1-4.6
		c-0.8,0-2,0.4-3,0.9c0,0,0.3,1.4,0.2,9.5l0,2.9c0,1.2-0.5,1.8-1.8,1.8h-4.9c-1.2,0-1.8-0.5-1.8-1.8c0,0,0-6.6,0-8.7
		c0-3.2-1.1-4.6-3.1-4.6c-0.8,0-1.8,0.3-2.8,0.8v12.5c0,1.2-0.5,1.8-1.8,1.8H5.7c-1.2,0-1.8-0.5-1.8-1.8V33.8c0-1.1-0.1-2.3,0.3-2.7
		c0.4-0.4,1-0.3,1.6,0.1c0.9,0.6,2.7,1.3,4.4,1.3c1.4,0,2.1-0.1,4.6-0.8c2.5-0.7,3.9-1.2,5.3-1.2c2.7-0.2,5.4,0.8,5.8,2.8
		c3.1-2,5.5-2.5,8-2.5c2,0,3.8,0.6,5,1.7C40.7,34.2,41.2,36.6,41.2,41.2z M107.3,28.6c2.3,0,4.3-1.9,4.3-4.3c0-2.3-1.9-4.3-4.3-4.3
		c-2.3,0-4.3,1.9-4.3,4.3C103.1,26.7,105,28.6,107.3,28.6z M109.8,53.1h-4.9c-1.2,0-1.8-0.5-1.8-1.8V33.7c0-1.2,0.5-1.8,1.8-1.8h4.9
		c1.2,0,1.8,0.5,1.8,1.8l0,17.6C111.6,52.6,111,53.1,109.8,53.1z M83.8,51.3l0-17.6c0-1.2-0.5-1.8-1.8-1.8h-4.9
		c-1.2,0-1.8,0.5-1.8,1.8v17.6c0,1.2,0.5,1.8,1.8,1.8H82C83.3,53.1,83.8,52.6,83.8,51.3z M75.3,24.3c0-2.3,1.9-4.3,4.3-4.3
		c2.3,0,4.3,1.9,4.3,4.3c0,2.3-1.9,4.3-4.3,4.3C77.2,28.6,75.3,26.7,75.3,24.3z M59.1,30.1c-8,0-13.9,4.8-13.9,12
		c0,7.2,5,11.7,12.2,12.1c3.1,0.2,8.7,0.1,11.9-4.5c0.7-1.1,1-2.1,1-2.8c0-0.4-0.4-0.6-0.8-0.5c-0.4,0.1-4,2.6-9,2
		c-3-0.4-5.8-2.4-6-5.4c0,0,14.6,0,15,0c1.2,0,1.8-0.5,1.8-1.8C71.3,35.9,66.9,30.1,59.1,30.1z M63,39h-8.4c0.2-1.5,1.7-3.9,4.6-3.9
		C62,35.1,63.1,37.6,63,39z M93.5,28.6c2.3,0,4.3-1.9,4.3-4.3c0-2.3-1.9-4.3-4.3-4.3c-2.3,0-4.3,1.9-4.3,4.3
		C89.2,26.7,91.2,28.6,93.5,28.6z M97.8,51.3c0,1.6,0,2.4-0.1,3.7c-0.6,5.9-5.2,8.1-9.6,8.1c-4.8,0-7.5-2.6-8-4.2
		c-0.1-0.3,0-0.6,0.3-0.7c0.2-0.1,0.4-0.1,0.8,0.1c1.7,0.6,4.1,0.5,5.8-0.4c1.9-1.1,2.3-2.5,2.3-7.3c0-1.7,0-17,0-17
		c0-1.2,0.5-1.8,1.8-1.8H96c1.2,0,1.8,0.5,1.8,1.8C97.8,37.6,97.8,51.3,97.8,51.3z"/>
	<g>
		<path d="M13.7,4c-0.4,1.1-1,2.2-1.6,3.3h1.6c-0.1,0.9-0.2,1.7-0.4,2.5c-0.2-0.4-0.3-0.9-0.5-1.4l-1.1,0.1c0.2,1,0.6,1.8,1,2.6
			c-0.2,0.5-0.5,1.1-0.9,1.6c-0.5,0.7,0.1,1.1,0.8,0.4c0.3-0.3,0.5-0.7,0.8-1.1c0.7,0.8,1.7,1.2,2.9,1.3c1.2,0.1,2.3,0.1,3.6,0.1
			c0.8,0,0.9-1,0.1-1c-1,0-2.2,0-3.4-0.1c-1.1-0.1-1.9-0.7-2.4-1.5c0,0,0,0,0-0.1c0.4-1,0.7-2.3,0.8-3.7c0-0.2-0.1-0.5-0.4-0.5h-0.7
			c0.4-0.7,1-1.9,1.3-2.7C15.2,3.3,15,3,14.5,3h-1.7l-0.1,1H13.7z"/>
		<path d="M16.9,6.5h-1.3l-0.1,0.9h1.3l-0.1,0.9h-1.4l-0.1,0.9h1.4L16.6,10h-1.7l-0.1,0.9h1.7l-0.1,0.8h1.3l0.1-0.8h2.6l0.1-0.9
			h-2.6L18,9.2h2.5l0.1-0.9H18l0.1-0.9h1.1h0.7h0.6l0.1-1.7h0.5l0.1-1h-0.5l0.1-0.9c0-0.5-0.2-0.7-0.6-0.7h-1.6l0.1-0.7h-1.4
			l-0.1,0.7H16l-0.1,0.8h1.2l-0.1,0.8h-1.7l-0.1,0.8H17L16.9,6.5z M18.4,3.9h1.1l-0.1,0.8h-1.1L18.4,3.9z M18.3,5.6h1.1l-0.1,0.9
			h-1.1L18.3,5.6z"/>
		<path d="M30.3,2.4h-1.7l-0.1,0.7H24l-0.3,3.4c-0.2,2.5-0.5,4.4-1.3,6.1c-0.3,0.7,0.6,1.1,1,0.4c1-1.6,1.6-3.8,1.8-6.5l0.2-2.4h9.4
			l0.1-1h-4.6L30.3,2.4z"/>
		<path d="M39.6,9.5c-0.1,0.8-0.1,1.4,0.1,1.9c0.3,0.9,1,1.4,2.2,1.4c1.2,0.1,2.2,0,3.5-0.1c1-0.1,1-1.4,0-1.3
			c-1.1,0.1-1.7,0.2-2.2,0.2c-0.3,0-0.6,0-0.9,0c-0.6-0.1-1.2-0.4-1.3-1.1c0-0.3,0-0.6,0.1-1L39.6,9.5z"/>
		<path d="M40.3,4.2l-0.1,1.3c1.9-0.1,4.3-0.2,6.2-0.1l0.1-1.3C44.9,4,42.4,4.1,40.3,4.2z"/>
		<path d="M38.6,12.9c-0.3-1.4-0.2-2.8-0.2-4c0.1-1.6,0.5-3.4,1.2-5.5L38,3.2c-0.5,1.6-0.9,3.2-1.1,5c0,0.3-0.1,0.5-0.1,0.8
			c-0.1,1.4-0.1,2.8,0.2,4.2L38.6,12.9z"/>
		<path d="M102.3,7.6c-0.1-0.4-0.2-0.7-0.4-0.9c-0.4-0.4-1.3-0.6-2.5-0.2c0.4-0.4,0.7-0.8,1.1-1.3l4.7,0l0.1-1.2l-4.2,0
			c0.1-0.3,0.3-0.7,0.4-1l-1.7-0.1c-0.1,0.4-0.2,0.7-0.4,1.1l-3.5,0l-0.1,1.2l3,0C98,6.3,97,7.3,95.4,8.3c-0.8,0.6-0.2,1.5,0.6,1
			c0.8-0.5,1.8-1.2,2.4-1.4c1.7-0.6,2.3-0.6,2.3,0.2c-1.8,0.7-3.1,1.5-3.2,2.7c-0.1,0.9,0.3,1.6,1.1,1.9c0.5,0.2,1.1,0.3,2.2,0.3
			c1.6,0,2.7,0,3.8-0.1c0.7-0.1,0.8-1.2,0-1.2c-1.6,0.1-3.1,0.2-4,0.2c-1,0-1.6-0.4-1.5-1.1c0-0.5,0.6-1,1.5-1.4
			c-0.1,0.6-0.1,1.3-0.1,1.4h1.6c0-0.5,0.1-1.3,0.2-2c1-0.3,2.1-0.5,3.3-0.6l-0.2-1.4C104.4,7.1,103.3,7.3,102.3,7.6z"/>
		<path d="M49.5,12.9c3.9-0.8,4.6-2.9,4.8-5.4l0.1-2h-1.9l-0.2,2.1c-0.2,2.4-1.1,3.3-3.1,4C48.6,11.9,48.7,13.1,49.5,12.9z"/>
		<path d="M55.5,7.5c-0.7,0.2-0.9,1.3,0,1.2c1.9-0.2,3.8-2,4.2-4.4c0.1-0.5-0.2-1-0.8-1h-9.8l-0.1,1.2h8.6
			C57.5,6.3,56.5,7.2,55.5,7.5z"/>
		<path d="M83.8,12.9c3.9-0.8,4.6-2.9,4.8-5.4l0.1-2H87l-0.2,2.1c-0.2,2.4-1.1,3.3-3.1,4C83,11.9,83,13.1,83.8,12.9z"/>
		<path d="M93.3,3.3h-9.5l-0.1,1.2H92c-0.2,1.7-1.2,2.6-2.1,2.9c-0.7,0.2-0.9,1.3,0,1.2c1.9-0.2,3.8-2,4.2-4.4
			C94.2,3.8,94,3.3,93.3,3.3z"/>
		<path d="M69.3,3L68,3c-0.8,2.1-3.8,4.1-7.7,4.5c-0.8,0.1-0.9,1.3,0,1.3c1.4-0.1,2.8-0.4,4-0.8l-0.4,5.1h1.7L66,7.3
			c1.8-0.9,3.1-2,3.7-3.5C70,3.3,69.8,3,69.3,3z"/>
		<polygon points="79.6,3.2 72,3.2 71.9,4.5 79.5,4.5 		"/>
		<path d="M71.4,11.9c-0.7,0.1-0.7,1.2,0.1,1.2c4.1-0.3,5.3-2.1,5.5-4.5L77,7.6h3.9L81,6.3H71l-0.1,1.2h4.2L75,8.5
			C74.8,10.7,73.9,11.5,71.4,11.9z"/>
		<path d="M81.4,2.4c-0.5,0-0.9,0.4-0.9,0.9c0,0.5,0.4,0.9,0.9,0.9c0.5,0,0.9-0.4,0.9-0.9C82.3,2.8,81.9,2.4,81.4,2.4z"/>
		<path d="M83.5,1.7c0.2-0.1,0.4-0.3,0.5-0.5c0.3-0.7-0.3-1.4-1.1-1.2c-0.3,0.1-0.5,0.3-0.6,0.6C82.1,1.3,82.8,2,83.5,1.7z"/>
		<path d="M9.7,8.8c0.1-0.2,0.3-0.4,0.4-0.6l-0.5,5.4H11l0.6-7.9c0.5-1,0.9-2.1,1.2-3.4h-1.7c-0.4,2.3-1.2,4.1-2.3,5.8
			C8.4,8.8,9.2,9.5,9.7,8.8z"/>
		<path d="M27.1,11.1c0.9,0.1,1.2-0.8,0.3-1c-0.5-0.1-1-0.2-1.5-0.4l-0.7,0.9C25.8,10.8,26.7,11,27.1,11.1z"/>
		<path d="M24.7,13.3c1.3-0.1,2.3-0.4,3.1-0.9c0.6-0.3,0.3-1-0.4-0.8c-0.9,0.3-1.8,0.4-2.8,0.5L24.7,13.3z"/>
		<path d="M25.6,6.7l-0.1,0.8h3.4l-0.1,0.9H26l-0.1,0.9h2.8l-0.3,4.2h1.4l0.1-1.7c0-0.3,0-0.6,0-0.9c0.7,1.3,2.1,2.4,3.6,2.6
			c0.7,0.1,1-0.8,0.3-1c-1.6-0.4-2.8-1.7-3.5-3.2h3.3l0.1-1.7h0.5l0.1-0.9h-0.5l0.1-0.9c0-0.5-0.3-0.7-0.7-0.7h-2.6l0-0.5h-1.5
			l0,0.5h-2.8l-0.1,0.8h2.9L29,6.7H25.6z M30.4,5.8h2.1l-0.1,0.9h-2.1L30.4,5.8z M30.2,7.5h2.1l-0.1,0.9h-2.1L30.2,7.5z"/>
		<path d="M32.3,10.1c-0.7,0.3-0.4,1.1,0.2,1c0.7-0.2,1.6-0.5,2.1-0.8l-0.8-0.9C33.4,9.6,33,9.9,32.3,10.1z"/>
	</g>
</g>
</svg>
