<svg version="1.1" id="レイヤー_1" xmlns="http://www.w3.org/2000/svg" x="0" y="0" width="112.96" height="16.04" viewBox="0 0 112.96 16.04" style="enable-background:new 0 0 112.96 16.04" xml:space="preserve"><path d="M13.58 8.21h2.86c.58 0 .59-1.45 0-1.45h-3.46c0-.95-.01-1.86-.01-2.7h3.1c.58 0 .59-1.46 0-1.46h-3.11c0-.78-.01-1.45-.02-1.94-.01-.47-.3-.66-.67-.66h-1.09c-.37 0-.65.19-.67.65-.02.49-.02 1.16-.03 1.94H9.35c.12-.49.2-1.03.27-1.61.02-.2-.12-.35-.3-.35H7.78c-.21 0-.37.14-.38.33-.1 1.76-.25 3.17-.89 4.39-.19.37.15.78.59.61.73-.26 1.33-.93 1.77-1.91h1.6c0 .84-.01 1.76-.01 2.7H6.99c-.59 0-.59 1.45 0 1.45h2.46c-1.03 2.46-2.2 4.42-3.56 6.04-.36.43.21 1.05.73.69 1.41-.99 2.71-2.45 3.84-4.28 0 1.94.02 3.68.03 4.73 0 .4.3.66.67.66h1.12c.37 0 .66-.25.67-.66.01-1.12.02-3.04.02-5.16 1.05 2.16 2.45 3.99 3.93 4.89.18.11.41 0 .41-.22v-1.15c0-.24-.11-.49-.29-.65-1.3-1.2-2.34-2.53-3.44-4.88z"/><path d="M6.22 7.9v-.91c0-.19-.18-.38-.35-.46-.35-.17-.7-.33-1.06-.52 0-.47 0-.94-.01-1.38h1.17c.59 0 .59-1.45 0-1.45H4.79c-.02-1.04-.04-1.92-.06-2.52C4.71.19 4.43 0 4.07 0h-.93c-.37 0-.65.19-.67.66-.03.6-.05 1.48-.06 2.52H.87c-.59 0-.58 1.45 0 1.45h1.52v.12C1.8 7.06.93 8.72.07 10.15c-.27.46.34.97.78.6.53-.44 1.04-1.02 1.53-1.72.01 2.58.04 5.03.08 6.36.01.4.3.65.67.65h.93c.37 0 .65-.25.66-.65.07-1.61.09-4.68.09-7.68.3.22.61.41.95.52.22.08.46-.08.46-.33zm56.18 3.26c.2.05.43-.09.43-.34v-.89a.5.5 0 0 0-.32-.45c-.87-.32-1.58-.68-2.34-1.25.91-1.14 1.55-2.66 1.88-4.7.06-.36-.32-.69-.67-.69h-1.71c.02-.73.01-1.59-.02-2.19-.03-.4-.31-.65-.68-.65h-1.09c-.37 0-.64.25-.67.65-.03.65-.03 1.43-.02 2.19h-2c-.59 0-.58 1.45 0 1.45h4.1c-.44 2.79-1.99 4.63-4.8 5.96-.56.27-.25 1.17.4 1 .88-.23 1.68-.5 2.41-.84-.03 1.67-.01 3.73.03 4.97.02.4.3.65.67.65h1.09c.37 0 .65-.25.67-.65.06-1.66.06-3.88.01-5.65.77.64 1.68 1.16 2.63 1.43z"/><path d="M71.27 13.88h-3.25c.03-2.01.04-5.23.02-8.1h2.75c.63 0 .63-1.55 0-1.55h-2.76C68.01 2.77 68 1.5 67.97.66c-.01-.47-.3-.66-.66-.66h-1.29c-.37 0-.65.19-.66.66-.03.83-.05 2.1-.06 3.56h-2.58c-.63 0-.62 1.55 0 1.55h2.58c-.01 2.88 0 6.11.02 8.1h-3.68c-.65 0-.64 1.6 0 1.6h9.64c.63.01.63-1.59-.01-1.59zm-42.82-1.97c-1.14.28-2.27.54-3.44.75.04-1.27.02-3.11-.02-4.29h2.21c.63 0 .63-1.55 0-1.55h-7.12c-.63 0-.63 1.55 0 1.55h2.17c-.07 1.32-.08 3.5 0 4.72-.84.1-1.7.19-2.61.26-.25.02-.45.21-.49.37-.08.42-.07 1 0 1.44.03.2.18.36.43.34 3.22-.17 6.38-.91 8.95-2.08.43-.2.53-.43.53-.9-.01-.49-.24-.71-.61-.61zm3.73-9.89h1.84c.63 0 .63-1.55 0-1.55h-1.84c-.63 0-.63 1.55 0 1.55z"/><path d="M34.4 2.94h-3.47c-.02-.84-.01-1.67-.03-2.28-.03-.47-.31-.66-.68-.66h-1.4c-.37 0-.64.19-.66.65-.04.61-.09 1.44-.08 2.28h-8.51c-.63 0-.63 1.55 0 1.55h8.59c.54 7.44 2.95 10.55 6.16 11.51.25.07.51-.04.51-.32v-.87c0-.25-.07-.49-.29-.66-2.04-1.52-3.21-3.8-3.55-9.65h3.41c.62 0 .63-1.55 0-1.55zm2.75 3.15c.69-.16 1.38-.37 2.06-.61-.04.4.1.85.43.85h10.02c.33 0 .48-.45.43-.85.69.3 1.41.55 2.13.76.22.06.44-.12.44-.35V4.9c0-.2-.14-.38-.32-.44-2.4-.8-4.59-2.1-6.16-4.01-.16-.21-.26-.33-.55-.33h-2.16c-.21 0-.39.11-.52.3-1.52 2.08-3.84 3.71-6.12 4.72-.52.23-.31 1.11.32.95zm7.91-4.4c.98 1.29 2.32 2.36 3.83 3.19h-8.25c1.67-.79 3.21-1.85 4.42-3.19zm7.17 8.26c.58 0 .59-1.45 0-1.45h-15.2c-.59 0-.58 1.45 0 1.45h3.42c-.37.99-.88 2.23-1.36 3.36-.12.29-.34.45-.62.45h-1.03c-.18 0-.35.13-.39.32-.07.31-.06.98 0 1.28.04.21.21.32.39.32h3.96c3.46 0 5.31-.47 7.44-1.5.31.48.6.95.84 1.35.12.21.42.32.65.32h1.93c.27 0 .42-.28.29-.52-.77-1.34-2.18-3.21-2.9-4-.18-.2-.32-.26-.59-.26H47.3c-.23 0-.4.25-.25.46.3.43.63.9.96 1.4-1.61.71-2.58.83-6.18.83h-.26c.6-1.09 1.29-2.59 1.74-3.81h8.92zm47.76-.98c-.53 0-.64.14-.73.44-.56 1.75-1.01 2.57-1.74 3.26-.2.19-.37.45-.42.62-.17.65-.15 1.65.02 2.19.12.39.5.57.88.46 1.85-.54 2.54-2.61 2.64-6.5-.01-.27-.18-.47-.65-.47zm12.94-2.13c-.53-1.55-1.64-3.91-2.29-5.19-.12-.22-.26-.34-.53-.34h-1.59c-.24 0-.38.17-.31.38.25.71.65 1.77 1.05 2.82-1.44.67-1.92.74-3.26.74h-1.89c.59-.96 1.49-3.09 2.01-4.89.06-.19-.06-.36-.31-.36h-1.97c-.22 0-.42.14-.48.32-.43 1.31-.92 3-1.56 4.47-.14.33-.33.45-.67.45-.47 0-.51 1.74 0 1.74h4.67c1.53 0 2.84-.38 4.02-1.07.15.39.3.75.42 1.04.08.2.26.32.5.32h1.9c.26.02.37-.19.29-.43zm-1.53 1.49h-9.1c-.37 0-.64.19-.66.66-.12 2.15-.17 4.49-.1 6.21.02.4.3.65.67.65h9.29c.37 0 .65-.25.67-.65.07-1.71.02-4.06-.1-6.21-.02-.47-.3-.66-.67-.66zm-1.93 5.61c0 .22-.18.39-.4.39h-4.43a.4.4 0 0 1-.4-.39v-3.71c0-.22.18-.39.4-.39h4.43c.22 0 .4.17.4.39v3.71zm-8.65-12.52c0-.33-.19-.61-.63-.7-.61-.13-1.58-.25-2.25-.26-.45 0-.63.22-.63.55v1c0 .42.21.64.63.76.61.17 1.6.34 2.25.38.42.02.63-.19.63-.55V1.42zm-1.25 6.02c.41.02.63-.19.63-.54V5.7c0-.33-.2-.6-.63-.7-.61-.13-1.58-.25-2.25-.25-.45 0-.63.23-.63.55v1c0 .41.21.64.63.76.6.18 1.59.34 2.25.38zm-14.72 4.64c.1-2.71.1-7.92 0-10.67-.01-.44-.28-.62-.63-.62h-5.61c-.35 0-.62.18-.63.62-.1 2.63-.12 8-.03 10.67.01.38.28.62.63.62h5.64c.35 0 .62-.24.63-.62zm-2.39-1.19c0 .21-.17.37-.38.37h-1.35c-.21 0-.38-.16-.38-.37V7.44h2.1v3.45zm0-4.9h-2.1v-3.4c0-.2.17-.37.38-.37h1.35c.21 0 .38.17.38.37v3.4z"/><path d="M93.5.46h-6.61c-.39 0-.68.24-.7.62-.09 1.7-.08 5.17-.08 6.66 0 4.02-.95 5.81-2.67 7.1-.56.42-.23 1.26.5.98 2.52-.94 4.02-2.49 4.48-5.35h3.28c0 1.41 0 2.57-.04 3.06-.03.38-.28.68-.72.68h-1.32c-.59 0-.58 1.51 0 1.51h2.82c1.02 0 1.7-.69 1.73-1.57.1-2.26.04-10.73-.03-13.06-.01-.44-.29-.63-.64-.63zm-4.91 1.9c0-.24.19-.45.42-.45h2.24c.27 0 .45.22.45.45-.01.65-.01 1.49-.01 2.42H88.6V2.36zm-.02 6.66c.01-.25.02-.5.02-.78v-2h3.1c0 .92.01 1.87.01 2.78h-3.13z"/></svg>