<svg version="1.1" id="レイヤー_1" xmlns="http://www.w3.org/2000/svg" x="0" y="0" width="50" height="100" viewBox="0 0 50 100" style="enable-background:new 0 0 50 100" xml:space="preserve"><style type="text/css">.st0{fill:#e30200}.st1{fill-rule:evenodd;clip-rule:evenodd;fill:#fff}</style><path class="st0" d="M50 100C22.39 100 0 77.61 0 50S22.39 0 50 0"/><path class="st1" d="M35.18 50.01L24.22 60.96a1.49 1.49 0 0 0 0 2.12l.71.71c.59.59 1.54.59 2.12 0l12.73-12.73c.59-.59.59-1.54 0-2.12L27.05 36.22a1.49 1.49 0 0 0-2.12 0l-.71.71a1.49 1.49 0 0 0 0 2.12l10.96 10.96z"/></svg>