<svg version="1.1" id="レイヤー_1" xmlns="http://www.w3.org/2000/svg" x="0" y="0" width="60" height="60" viewBox="0 0 60 60" style="enable-background:new 0 0 60 60" xml:space="preserve"><style type="text/css">.st0{fill:#666}.st1{fill:#fff}</style><circle class="st0" cx="30" cy="30" r="30"/><path class="st1" d="M25.06 17.94h-4.3c-.61 0-1.1.49-1.1 1.1v21.91c0 .61.49 1.1 1.1 1.1h4.3c.61 0 1.1-.49 1.1-1.1v-21.9c0-.61-.49-1.11-1.1-1.11zm14.18 0h-4.3c-.61 0-1.1.49-1.1 1.1v21.91c0 .61.49 1.1 1.1 1.1h4.3c.61 0 1.1-.49 1.1-1.1v-21.9c0-.61-.49-1.11-1.1-1.11z"/></svg>