<svg version="1.1" id="レイヤー_1" xmlns="http://www.w3.org/2000/svg" x="0" y="0" width="22.43" height="27.58" viewBox="0 0 22.43 27.58" style="enable-background:new 0 0 22.43 27.58" xml:space="preserve"><style type="text/css">.st0{fill:#fff}.st1{fill:#999}.st2{fill:#ad3231}</style><path class="st0" d="M.7 26.88V.7h16.23l4.8 5.01v21.17z"/><path class="st1" d="M16.63 1.4l4.41 4.59v20.19H1.4V1.4h15.23m.59-1.4H0v27.58h22.43V5.43L17.22 0z"/><path class="st2" d="M10.5 11.71c.14 0 .14 0 0 0 .13-.53.27-.8.27-1.2v-.27c.13-.67.13-1.21 0-1.34v-.13l-.14-.13s0 .13-.13.13c-.27.8-.27 1.74 0 2.94zm-4.05 9.21c-.27.13-.53.27-.67.4-.94.8-1.62 1.74-1.75 2.14.8-.14 1.62-.94 2.42-2.54.14 0 .14 0 0 0 .14 0 0 0 0 0zm12.43-2c-.14-.14-.68-.54-2.57-.54h-.26v.13c.94.4 1.89.67 2.56.67h.4v-.14c0 .01-.13.01-.13-.12zm.54 1.06c-.27.13-.68.27-1.22.27-1.08 0-2.7-.27-4.05-.94-2.3.27-4.06.53-5.4 1.07-.14 0-.14 0-.27.14-1.62 2.8-2.97 4.13-4.05 4.13-.27 0-.4 0-.54-.13l-.67-.4v-.14c-.14-.27-.14-.4-.14-.67.14-.67.95-1.87 2.57-2.8.27-.14.67-.4 1.21-.67.4-.66.81-1.47 1.35-2.4.67-1.34 1.08-2.67 1.48-3.87-.54-1.6-.81-2.54-.27-4.4.13-.53.54-1.07 1.08-1.07h.27c.27 0 .54.13.81.27.94.93.54 3.07 0 4.8v.14c.54 1.47 1.35 2.67 2.16 3.47.41.27.68.53 1.22.8.67 0 1.21-.13 1.75-.13 1.62 0 2.7.26 3.11.93.13.27.13.54.13.8-.13.13-.27.54-.53.8zm-8.78-5.2c-.27.93-.81 2-1.35 3.2-.27.54-.54.94-.81 1.47h.27c1.75-.67 3.38-1.07 4.45-1.21-.27-.13-.4-.27-.53-.4-.68-.79-1.49-1.86-2.03-3.06zM0 3.41h10.43v3.54H0z"/><path class="st1" d="M15.92.61v5.61h5.52l.49-1L16.55.61z"/></svg>