<svg version="1.1" id="レイヤー_1" xmlns="http://www.w3.org/2000/svg" x="0" y="0" width="50" height="100" viewBox="0 0 50 100" style="enable-background:new 0 0 50 100" xml:space="preserve"><style type="text/css">.st0{fill:#e30200}.st1{fill-rule:evenodd;clip-rule:evenodd;fill:#fff}</style><path class="st0" d="M-.41-.05c27.61 0 50 22.39 50 50s-22.39 50-50 50"/><path class="st1" d="M15.41 49.95l10.96-10.96c.59-.59.59-1.54 0-2.12l-.71-.71a1.49 1.49 0 0 0-2.12 0L10.81 48.89a1.49 1.49 0 0 0 0 2.12l12.73 12.73c.59.59 1.54.59 2.12 0l.71-.71c.59-.59.59-1.54 0-2.12L15.41 49.95z"/></svg>