<svg version="1.1" id="レイヤー_1" xmlns="http://www.w3.org/2000/svg" x="0" y="0" width="28.04" height="28.06" viewBox="0 0 28.04 28.06" style="enable-background:new 0 0 28.04 28.06" xml:space="preserve"><style type="text/css">.st0{fill:#e30200}</style><path class="st0" d="M27.43 24.49l-7.3-7.3c2.89-4.28 2.45-10.17-1.33-13.96-4.3-4.3-11.28-4.29-15.57 0-4.3 4.3-4.3 11.29 0 15.59 2.15 2.15 4.97 3.22 7.79 3.22 2.16 0 4.31-.63 6.16-1.89l7.3 7.3c.41.41.94.61 1.48.61s1.07-.21 1.48-.61c.81-.82.81-2.15-.01-2.96zM6.18 15.85c-2.66-2.66-2.66-7 0-9.66 1.33-1.33 3.08-2 4.83-2s3.5.66 4.83 2c2.66 2.66 2.66 7 0 9.66-2.67 2.66-7 2.66-9.66 0z"/></svg>