<svg version="1.1" id="レイヤー_1" xmlns="http://www.w3.org/2000/svg" x="0" y="0" width="22.53" height="22.53" viewBox="0 0 22.53 22.53" style="enable-background:new 0 0 22.53 22.53" xml:space="preserve"><style type="text/css">.st0{fill-rule:evenodd;clip-rule:evenodd;fill:#666}</style><path class="st0" d="M13.91 11.27l8.15-8.15c.63-.63.63-1.66 0-2.29l-.34-.34c-.63-.63-1.66-.63-2.29 0l-8.15 8.15L3.11.48C2.48-.15 1.45-.15.82.48L.48.82c-.63.63-.63 1.66 0 2.29l8.15 8.15-8.15 8.15c-.63.63-.63 1.66 0 2.29l.34.34c.63.63 1.66.63 2.29 0l8.15-8.15 8.15 8.15c.63.63 1.66.63 2.29 0l.34-.34c.63-.63.63-1.66 0-2.29l-8.13-8.14z"/></svg>