<svg version="1.1" id="レイヤー_1" xmlns="http://www.w3.org/2000/svg" x="0" y="0" width="39.9" height="31.8" viewBox="0 0 39.9 31.8" style="enable-background:new 0 0 39.9 31.8" xml:space="preserve"><style type="text/css">.st0{fill:#1da1f2}</style><path class="st0" d="M39.9 3.8c-1.5.6-3 1.1-4.7 1.3 1.7-1 3-2.6 3.6-4.4-1.6.9-3.3 1.6-5.2 1.9C32.1 1 30 0 27.7 0c-4.5 0-8.2 3.6-8.2 8 0 .6.1 1.2.2 1.8-6.8-.3-12.9-3.5-16.9-8.3-.7 1.2-1.1 2.5-1.1 4 0 2.8 1.4 5.2 3.6 6.7-1.3 0-2.6-.4-3.7-1v.1c0 3.9 2.8 7.1 6.6 7.9-.7.2-1.4.3-2.2.3-.5 0-1 0-1.5-.1 1 3.2 4.1 5.5 7.7 5.6-2.9 2-6.4 3.3-10.2 3.3-.7 0-1.3 0-2-.1 3.6 2.3 7.9 3.6 12.6 3.6 15.1 0 23.3-12.2 23.3-22.8V8c1.6-1.2 2.9-2.6 4-4.2"/></svg>