<svg version="1.1" id="レイヤー_1" xmlns="http://www.w3.org/2000/svg" x="0" y="0" width="44.56" height="30.56" viewBox="0 0 44.56 30.56" style="enable-background:new 0 0 44.56 30.56" xml:space="preserve"><style type="text/css">.st0{fill:#fc0d1c}</style><path class="st0" d="M43.63 4.77c-.51-1.88-2.02-3.36-3.94-3.86C36.21 0 22.28 0 22.28 0S8.35 0 4.87.91C2.95 1.42 1.44 2.9.93 4.77 0 8.18 0 15.28 0 15.28s0 7.1.93 10.51c.51 1.88 2.02 3.36 3.94 3.86 3.47.91 17.41.91 17.41.91s13.93 0 17.41-.91c1.92-.5 3.43-1.98 3.94-3.86.93-3.4.93-10.51.93-10.51s0-7.1-.93-10.51zM17.82 21.83V8.73l11.58 6.55-11.58 6.55z"/></svg>